<?xml version="1.0" encoding="UTF-8" standalone="no"?>
<!DOCTYPE svg PUBLIC "-//W3C//DTD SVG 1.1//EN"
 "http://www.w3.org/Graphics/SVG/1.1/DTD/svg11.dtd">
<!-- Generated by graphviz version 2.47.0 (20210316.0004)
 -->
<!-- Title: dependencies Pages: 1 -->
<svg width="852pt" height="287pt"
 viewBox="0.00 0.00 852.00 287.00" xmlns="http://www.w3.org/2000/svg" xmlns:xlink="http://www.w3.org/1999/xlink">
<g id="graph0" class="graph" transform="scale(1 1) rotate(0) translate(4 283)">
<title>dependencies</title>
<polygon fill="white" stroke="transparent" points="-4,4 -4,-283 848,-283 848,4 -4,4"/>
<text text-anchor="start" x="401.01" y="-42.4" font-family="Times-12" font-weight="bold" font-size="14.00">Legend</text>
<polygon fill="#ffffb3" stroke="transparent" points="188,-10 188,-30 208,-30 208,-10 188,-10"/>
<text text-anchor="start" x="211.63" y="-15.4" font-family="Times-12" font-size="14.00"> &#160;Declarations</text>
<polygon fill="#8dd3c7" stroke="transparent" points="301,-10 301,-30 321,-30 321,-10 301,-10"/>
<text text-anchor="start" x="324.73" y="-15.4" font-family="Times-12" font-size="14.00"> &#160;Module</text>
<polygon fill="#80b1d3" stroke="transparent" points="387,-10 387,-30 407,-30 407,-10 387,-10"/>
<text text-anchor="start" x="410.78" y="-15.4" font-family="Times-12" font-size="14.00"> &#160;Bootstrap</text>
<polygon fill="#fdb462" stroke="transparent" points="484,-10 484,-30 504,-30 504,-10 484,-10"/>
<text text-anchor="start" x="507.67" y="-15.4" font-family="Times-12" font-size="14.00"> &#160;Providers</text>
<polygon fill="#fb8072" stroke="transparent" points="580,-10 580,-30 600,-30 600,-10 580,-10"/>
<text text-anchor="start" x="603.73" y="-15.4" font-family="Times-12" font-size="14.00"> &#160;Exports</text>
<g id="clust1" class="cluster">
<title>cluster_AppModule</title>
<polygon fill="none" stroke="black" stroke-dasharray="1,5" points="298,-70 298,-271 568,-271 568,-70 298,-70"/>
</g>
<g id="clust3" class="cluster">
<title>cluster_AppModule_imports</title>
<polygon fill="none" stroke="black" points="444,-78 444,-206 548,-206 548,-78 444,-78"/>
</g>
<g id="clust6" class="cluster">
<title>cluster_AppModule_providers</title>
<polygon fill="none" stroke="black" points="306,-154 306,-206 436,-206 436,-154 306,-154"/>
</g>
<g id="clust7" class="cluster">
<title>cluster_AuthModule</title>
<polygon fill="none" stroke="black" stroke-dasharray="1,5" points="8,-70 8,-138 290,-138 290,-70 8,-70"/>
</g>
<g id="clust12" class="cluster">
<title>cluster_AuthModule_providers</title>
<polygon fill="none" stroke="black" points="16,-78 16,-130 282,-130 282,-78 16,-78"/>
</g>
<g id="clust13" class="cluster">
<title>cluster_UserModule</title>
<polygon fill="none" stroke="black" stroke-dasharray="1,5" points="576,-146 576,-214 836,-214 836,-146 576,-146"/>
</g>
<g id="clust16" class="cluster">
<title>cluster_UserModule_exports</title>
<polygon fill="none" stroke="black" points="724,-154 724,-206 828,-206 828,-154 724,-154"/>
</g>
<g id="clust18" class="cluster">
<title>cluster_UserModule_providers</title>
<polygon fill="none" stroke="black" points="584,-154 584,-206 716,-206 716,-154 584,-154"/>
</g>
<!-- AuthModule -->
<g id="node1" class="node">
<title>AuthModule</title>
<polygon fill="#8dd3c7" stroke="black" points="539.55,-198 536.55,-202 515.55,-202 512.55,-198 452.45,-198 452.45,-162 539.55,-162 539.55,-198"/>
<text text-anchor="middle" x="496" y="-175.8" font-family="Times,serif" font-size="14.00">AuthModule</text>
</g>
<!-- AppModule -->
<g id="node3" class="node">
<title>AppModule</title>
<polygon fill="#8dd3c7" stroke="black" points="537.66,-263 534.66,-267 513.66,-267 510.66,-263 454.34,-263 454.34,-227 537.66,-227 537.66,-263"/>
<text text-anchor="middle" x="496" y="-240.8" font-family="Times,serif" font-size="14.00">AppModule</text>
</g>
<!-- AuthModule&#45;&gt;AppModule -->
<g id="edge1" class="edge">
<title>AuthModule&#45;&gt;AppModule</title>
<path fill="none" stroke="black" d="M496,-198.11C496,-198.11 496,-216.99 496,-216.99"/>
<polygon fill="black" stroke="black" points="492.5,-216.99 496,-226.99 499.5,-216.99 492.5,-216.99"/>
</g>
<!-- UserModule -->
<g id="node2" class="node">
<title>UserModule</title>
<polygon fill="#8dd3c7" stroke="black" points="539.98,-122 536.98,-126 515.98,-126 512.98,-122 454.02,-122 454.02,-86 539.98,-86 539.98,-122"/>
<text text-anchor="middle" x="497" y="-99.8" font-family="Times,serif" font-size="14.00">UserModule</text>
</g>
<!-- UserModule&#45;&gt;AuthModule -->
<g id="edge4" class="edge">
<title>UserModule&#45;&gt;AuthModule</title>
<path fill="none" stroke="black" d="M511.19,-122.01C511.19,-122.01 511.19,-151.85 511.19,-151.85"/>
<polygon fill="black" stroke="black" points="507.69,-151.85 511.19,-161.85 514.69,-151.85 507.69,-151.85"/>
</g>
<!-- UserModule&#45;&gt;AppModule -->
<g id="edge2" class="edge">
<title>UserModule&#45;&gt;AppModule</title>
<path fill="none" stroke="black" d="M453.85,-110C443.72,-110 435.82,-110 435.82,-110 435.82,-110 435.82,-239 435.82,-239 435.82,-239 444.2,-239 444.2,-239"/>
<polygon fill="black" stroke="black" points="444.2,-242.5 454.2,-239 444.2,-235.5 444.2,-242.5"/>
</g>
<!-- UserService  -->
<g id="node7" class="node">
<title>UserService </title>
<polygon fill="#fb8072" stroke="black" points="819.9,-198 732.1,-198 732.1,-162 819.9,-162 819.9,-198"/>
<text text-anchor="middle" x="776" y="-175.8" font-family="Times,serif" font-size="14.00">UserService </text>
</g>
<!-- UserModule&#45;&gt;UserService  -->
<g id="edge7" class="edge">
<title>UserModule&#45;&gt;UserService </title>
<path fill="none" stroke="black" stroke-dasharray="5,2" d="M539.98,-98C618.24,-98 776,-98 776,-98 776,-98 776,-151.8 776,-151.8"/>
<polygon fill="black" stroke="black" points="772.5,-151.8 776,-161.8 779.5,-151.8 772.5,-151.8"/>
</g>
<!-- AppService -->
<g id="node4" class="node">
<title>AppService</title>
<ellipse fill="#fdb462" stroke="black" cx="371" cy="-180" rx="56.74" ry="18"/>
<text text-anchor="middle" x="371" y="-175.8" font-family="Times,serif" font-size="14.00">AppService</text>
</g>
<!-- AppService&#45;&gt;AppModule -->
<g id="edge3" class="edge">
<title>AppService&#45;&gt;AppModule</title>
<path fill="none" stroke="black" d="M371,-198.28C371,-219.32 371,-251 371,-251 371,-251 444.03,-251 444.03,-251"/>
<polygon fill="black" stroke="black" points="444.03,-254.5 454.03,-251 444.03,-247.5 444.03,-254.5"/>
</g>
<!-- AuthService -->
<g id="node5" class="node">
<title>AuthService</title>
<ellipse fill="#fdb462" stroke="black" cx="215" cy="-104" rx="59.11" ry="18"/>
<text text-anchor="middle" x="215" y="-99.8" font-family="Times,serif" font-size="14.00">AuthService</text>
</g>
<!-- AuthService&#45;&gt;AuthModule -->
<g id="edge5" class="edge">
<title>AuthService&#45;&gt;AuthModule</title>
<path fill="none" stroke="black" d="M271.03,-98C338.83,-98 444.02,-98 444.02,-98 444.02,-98 444.02,-180 444.02,-180 444.02,-180 444.84,-180 444.84,-180"/>
<polygon fill="black" stroke="black" points="442.15,-183.5 452.15,-180 442.15,-176.5 442.15,-183.5"/>
</g>
<!-- JwtStrategy -->
<g id="node6" class="node">
<title>JwtStrategy</title>
<ellipse fill="#fdb462" stroke="black" cx="81" cy="-104" rx="56.76" ry="18"/>
<text text-anchor="middle" x="81" y="-99.8" font-family="Times,serif" font-size="14.00">JwtStrategy</text>
</g>
<!-- JwtStrategy&#45;&gt;AuthModule -->
<g id="edge6" class="edge">
<title>JwtStrategy&#45;&gt;AuthModule</title>
<path fill="none" stroke="black" d="M81,-122.11C81,-131.9 81,-142 81,-142 81,-142 482.6,-142 482.6,-142 482.6,-142 482.6,-151.89 482.6,-151.89"/>
<polygon fill="black" stroke="black" points="479.1,-151.89 482.6,-161.89 486.1,-151.89 479.1,-151.89"/>
</g>
<!-- UserService -->
<g id="node8" class="node">
<title>UserService</title>
<ellipse fill="#fdb462" stroke="black" cx="650" cy="-180" rx="58.44" ry="18"/>
<text text-anchor="middle" x="650" y="-175.8" font-family="Times,serif" font-size="14.00">UserService</text>
</g>
<!-- UserService&#45;&gt;UserModule -->
<g id="edge8" class="edge">
<title>UserService&#45;&gt;UserModule</title>
<path fill="none" stroke="black" d="M650,-161.97C650,-141.23 650,-110 650,-110 650,-110 550.03,-110 550.03,-110"/>
<polygon fill="black" stroke="black" points="550.03,-106.5 540.03,-110 550.03,-113.5 550.03,-106.5"/>
</g>
</g>
</svg>
